#N canvas 304 68 1413 973 12;
#X obj 925 193 soundfiler;
#X obj 1100 116 bng 19 250 50 0 empty empty empty 0 -10 0 12 #fcfcfc #000000 #000000;
#X obj 1067 48 loadbang;
#X obj 1067 72 bng 19 250 50 0 empty empty empty 0 -10 0 12 #fcfcfc #000000 #000000;
#X floatatom 847 407 6 0 0 0 - - - 0;
#X obj 856 583 *~;
#X obj 901 636 samphold~;
#X obj 851 660 +~;
#X obj 847 439 sig~ 1;
#X obj 886 522 sig~ 22050;
#X obj 853 550 loop~;
#X floatatom 924 220 10 0 0 0 - - - 0;
#X obj 850 736 *~ 100;
#X obj 618 126 vsl 20 150 0.1 10 1 0 empty empty empty 0 -9 0 12 #fcfcfc #000000 #000000 0 1;
#X text 875 240 Rate;
#X obj 698 125 vsl 19 150 40 5000 0 0 empty empty empty 0 -9 0 12 #fcfcfc #000000 #000000 0 1;
#X obj 673 125 vsl 19 150 0 8 0 0 empty empty empty 0 -9 0 12 #fcfcfc #000000 #000000 0 1;
#X obj 1029 829 bob~ 100;
#X obj 1142 797 line~;
#X obj 1140 770 pack f 50;
#X obj 1096 769 sig~;
#X obj 1100 92 metro 500;
#X floatatom 886 500 5 0 0 0 - - - 0;
#X obj 969 599 sig~;
#X floatatom 1057 212 12 0 0 0 - - - 0;
#X text 1155 331 SAMPLE LENGTH;
#X text 1225 238 SAMPLE START;
#X floatatom 1212 182 5 0 0 0 - - - 0;
#X obj 1214 212 pack f f;
#X msg 1218 259 range \$1 \$2;
#X obj 927 249 expr abs($f1 - $f2);
#X floatatom 1064 278 14 0 0 0 - - - 0;
#X obj 1065 304 pack f f;
#X msg 1065 331 range \$1 \$2;
#X obj 105 308 hsl 500 40 0 130560 0 0 empty empty empty -2 -10 0 12 #fcfcfc #ff0400 #000000 0 1;
#N canvas 0 50 450 250 (subpatch) 0;
#X array audio1 130560 float 2;
#X coords 0 0.1 130560 -0.1 504 160 2 0 0;
#X restore 103 145 graph;
#X text 613 100 RATE;
#X text 663 101 FILTER;
#X text 701 174 FREQ, f 1;
#X obj 105 102 hsl 500 40 0 130560 0 0 empty empty empty -2 -10 0 12 #ffffff #0400ff #000000 0 1;
#X obj 615 289 output~;
#X obj 741 107 vu 19 240 empty empty -1 -10 0 12 #404040 #000000 1 0;
#X text 677 181 RES, f 1;
#X text 325 318 SAMPLE START;
#X text 330 112 SAMPLE END;
#X obj 1017 869 env~;
#X obj 1016 894 - 100;
#X msg 926 170 read -resize output_audio.wav audio1;
#X msg 929 44 \; pd dsp 1, f 9;
#X obj 850 698 tabread~ audio1;
#X msg 734 35 set 1;
#X msg 416 36 set 130560;
#X msg 774 67 set 5000;
#X floatatom 642 265 3 0 0 0 - - - 8;
#X connect 0 0 11 0;
#X connect 1 0 47 0;
#X connect 1 0 27 0;
#X connect 1 0 24 0;
#X connect 1 0 31 0;
#X connect 1 0 32 0;
#X connect 2 0 3 0;
#X connect 2 0 21 0;
#X connect 2 0 50 0;
#X connect 2 0 51 0;
#X connect 3 0 21 0;
#X connect 3 0 48 0;
#X connect 3 0 52 0;
#X connect 4 0 8 0;
#X connect 5 0 7 0;
#X connect 6 0 7 1;
#X connect 7 0 49 0;
#X connect 8 0 10 0;
#X connect 9 0 10 1;
#X connect 10 0 5 0;
#X connect 10 0 6 1;
#X connect 10 1 5 1;
#X connect 11 0 28 1;
#X connect 11 0 30 0;
#X connect 12 0 17 0;
#X connect 13 0 4 0;
#X connect 13 0 53 0;
#X connect 15 0 19 0;
#X connect 16 0 20 0;
#X connect 17 0 40 0;
#X connect 17 0 45 0;
#X connect 18 0 17 1;
#X connect 19 0 18 0;
#X connect 20 0 17 2;
#X connect 21 0 1 0;
#X connect 22 0 9 0;
#X connect 23 0 6 0;
#X connect 24 0 30 1;
#X connect 27 0 28 0;
#X connect 28 0 29 0;
#X connect 29 0 34 0;
#X connect 30 0 31 0;
#X connect 31 0 32 1;
#X connect 32 0 33 0;
#X connect 33 0 39 0;
#X connect 34 0 23 0;
#X connect 39 0 22 0;
#X connect 45 0 46 0;
#X connect 46 0 41 0;
#X connect 47 0 0 0;
#X connect 49 0 12 0;
#X connect 50 0 13 0;
#X connect 51 0 39 0;
#X connect 52 0 15 0;
#X coords 0 -0.1 1 0.1 700 253 1 100 100;
