#N canvas 222 203 1504 654 12;
#X obj 192 292 inlet;
#X obj 246 293 inlet;
#X obj 297 292 inlet;
#X obj 351 292 inlet;
#X obj 400 292 inlet;
#X obj 454 292 inlet;
#X obj 505 292 inlet;
#X obj 559 292 inlet;
#X obj 613 293 inlet;
#X obj 667 293 inlet;
#X obj 718 293 inlet;
#X obj 772 293 inlet;
#X obj 821 293 inlet;
#X obj 875 293 inlet;
#X obj 926 293 inlet;
#X obj 980 293 inlet;
#X text 189 228 ROTATE X -----------;
#X text 189 265 ON/OFF;
#X text 242 266 RADIAN;
#X text 293 266 SCALE;
#X text 352 266 ON/OFF;
#X text 405 267 RADIAN;
#X text 456 267 SCALE;
#X text 352 229 ROTATE Y -----------;
#X text 507 266 ON/OFF;
#X text 560 267 RADIAN;
#X text 611 267 SCALE;
#X text 507 229 ROTATE Z -----------;
#X text 661 228 SCALE--------;
#X text 663 267 ON/OFF;
#X text 715 267 SCALE;
#X text 769 229 NORM;
#X text 767 267 ON/OFF;
#X text 820 229 REFLT;
#X text 820 267 ON/OFF;
#X text 876 267 ON/OFF;
#X text 875 229 SOBEL;
#X text 927 266 ON/OFF;
#X text 926 228 GRAD;
#X text 981 266 ON/OFF;
#X text 980 228 DILATE;
#X obj 1038 294 inlet;
#X text 1039 267 ON/OFF;
#X text 1038 229 EROSION;
#X obj 632 595 outlet;
#X obj 1095 295 inlet;
#X text 1102 228 LAYER;
#X floatatom 202 384 5 0 0 0 - - - 0;
#X floatatom 252 385 5 0 0 0 - - - 0;
#X floatatom 401 478 5 0 0 0 - - - 0;
#X msg 204 438 set rotate_x_radian \, \$1;
#X msg 252 411 set rotate_x_scaling_factor \, \$1;
#X msg 401 508 set rotate_y_radian \, \$1;
#X floatatom 454 449 5 0 0 0 - - - 0;
#X msg 454 476 set rotate_y_scaling_factor \, \$1;
#X floatatom 695 458 5 0 0 0 - - - 0;
#X floatatom 745 459 5 0 0 0 - - - 0;
#X floatatom 717 352 5 0 0 0 - - - 0;
#X msg 745 485 set rotate_z_scaling_factor \, \$1;
#X msg 697 512 set rotate_z_radian \, \$1;
#X msg 717 383 set scale_factor \, \$1;
#X floatatom 667 383 5 0 0 0 - - - 0;
#X floatatom 192 320 5 0 0 0 - - - 0;
#X floatatom 829 425 5 0 0 0 - - - 0;
#X msg 192 346 set rotate_x \, \$1;
#X floatatom 351 322 5 0 0 0 - - - 0;
#X msg 351 348 set rotate_y \, \$1;
#X floatatom 505 385 5 0 0 0 - - - 0;
#X msg 829 450 set reflect \, \$1;
#X msg 667 409 set scale \, \$1;
#X floatatom 897 323 5 0 0 0 - - - 0;
#X msg 897 348 set sobel \, \$1;
#X msg 505 411 set rotate_z \, \$1;
#X floatatom 766 325 5 0 0 0 - - - 0;
#X msg 766 354 set normalize \, \$1;
#X floatatom 1049 327 5 0 0 0 - - - 0;
#X msg 1049 352 set erosion \, \$1;
#X floatatom 1002 352 5 0 0 0 - - - 0;
#X msg 992 377 set dilation \, \$1;
#X floatatom 938 371 5 0 0 0 - - - 0;
#X msg 939 396 set gradient \, \$1;
#X floatatom 1171 326 5 0 0 0 - - - 0;
#X msg 1171 351 set layer \, \$1;
#X connect 0 0 62 0;
#X connect 1 0 47 0;
#X connect 2 0 48 0;
#X connect 3 0 65 0;
#X connect 4 0 49 0;
#X connect 5 0 53 0;
#X connect 6 0 67 0;
#X connect 7 0 55 0;
#X connect 8 0 56 0;
#X connect 9 0 61 0;
#X connect 10 0 57 0;
#X connect 11 0 73 0;
#X connect 12 0 63 0;
#X connect 13 0 70 0;
#X connect 14 0 79 0;
#X connect 15 0 77 0;
#X connect 41 0 75 0;
#X connect 45 0 81 0;
#X connect 47 0 50 0;
#X connect 48 0 51 0;
#X connect 49 0 52 0;
#X connect 50 0 44 0;
#X connect 51 0 44 0;
#X connect 52 0 44 0;
#X connect 53 0 54 0;
#X connect 54 0 44 0;
#X connect 55 0 59 0;
#X connect 56 0 58 0;
#X connect 57 0 60 0;
#X connect 58 0 44 0;
#X connect 59 0 44 0;
#X connect 60 0 44 0;
#X connect 61 0 69 0;
#X connect 62 0 64 0;
#X connect 63 0 68 0;
#X connect 64 0 44 0;
#X connect 65 0 66 0;
#X connect 66 0 44 0;
#X connect 67 0 72 0;
#X connect 68 0 44 0;
#X connect 69 0 44 0;
#X connect 70 0 71 0;
#X connect 71 0 44 0;
#X connect 72 0 44 0;
#X connect 73 0 74 0;
#X connect 74 0 44 0;
#X connect 75 0 76 0;
#X connect 76 0 44 0;
#X connect 77 0 78 0;
#X connect 78 0 44 0;
#X connect 79 0 80 0;
#X connect 80 0 44 0;
#X connect 81 0 82 0;
#X connect 82 0 44 0;
