#N canvas 162 161 1762 880 12;
#X obj 194 145 audio;
#X obj 912 742 osc-send;
#X obj 951 662 bend-pack, f 35;
#X obj 520 625 inference-pack;
#X obj 197 418 hsl 500 50 0 1 0 0 empty empty LATENT-MIX\ (alpha) -2 -10 0 12 #c6ffc7 #000000 #000000 0 0;
#X obj 711 423 hsl 100 42 1 1000 1 1 empty empty STEPS -2 -10 0 12 #ffc7c6 #000000 #000000 2900 0;
#X obj 193 476 hradio 47 1 0 15 empty empty empty 0 -10 0 12 #ffc7c6 #000000 #000000 0;
#X text 194 527 PRE-PROCESSING, f 7;
#X text 800 535 POST-PROCESSING;
#X obj 859 423 tgl 40 1 empty empty GENERATE 0 -10 0 12 #ffc7c6 #000000 #000000 1 1;
#X obj 135 160 vradio 40 1 0 10 empty empty LATENT-1 0 -10 0 12 #c6ffc7 #000000 #000000 0;
#X obj 915 160 vradio 40 1 1 10 empty empty LATENT-2 0 -10 0 12 #c6ffc7 #000000 #000000 1;
#X text 252 535 -----------------------------------DOWN-BLOCKS--------------------------------, f 78;
#X text 991 139 NETWORK BENDING;
#X obj 993 161 cnv 19 400 400 empty empty empty 20 12 0 12 #e0e0e0 #404040 0;
#X text 1006 174 ROTATE-X;
#X obj 1007 209 tgl 19 0 empty empty ON/OFF 0 -10 0 8 #fcfcfc #000000 #000000 0 1;
#X obj 1046 209 hsl 162 19 -4 4 0 1 empty empty RADIAN -2 -10 0 8 #fcfcfc #000000 #000000 15950 1;
#X obj 1046 247 hsl 162 19 0 100 0 1 empty empty SCALING\ FACTOR -2 -10 0 8 #fcfcfc #000000 #000000 0 1;
#X floatatom 1218 210 5 0 0 0 - - - 0;
#X floatatom 1218 247 5 0 0 0 - - - 0;
#X obj 1007 309 tgl 19 0 empty empty ON/OFF 0 -10 0 8 #fcfcfc #000000 #000000 0 1;
#X obj 1046 309 hsl 162 19 -4 4 0 1 empty empty RADIAN -2 -10 0 8 #fcfcfc #000000 #000000 8050 1;
#X obj 1046 347 hsl 162 19 0 100 0 1 empty empty SCALING\ FACTOR -2 -10 0 8 #fcfcfc #000000 #000000 0 1;
#X floatatom 1218 310 5 0 0 0 - - - 0;
#X floatatom 1218 347 5 0 0 0 - - - 0;
#X obj 1008 410 tgl 19 0 empty empty ON/OFF 0 -10 0 8 #fcfcfc #000000 #000000 0 1;
#X obj 1047 410 hsl 162 19 -4 4 0 1 empty empty RADIAN -2 -10 0 8 #fcfcfc #000000 #000000 8050 1;
#X obj 1047 448 hsl 162 19 0 100 0 1 empty empty SCALING\ FACTOR -2 -10 0 8 #fcfcfc #000000 #000000 0 1;
#X floatatom 1219 411 5 0 0 0 - - - 0;
#X floatatom 1219 448 5 0 0 0 - - - 0;
#X text 1006 274 ROTATE-Y;
#X text 1007 375 ROTATE-Z;
#X obj 1008 510 tgl 19 0 empty empty ON/OFF 0 -10 0 8 #fcfcfc #000000 #000000 0 1;
#X obj 1047 510 hsl 162 19 -4 4 0 1 empty empty RADIAN -2 -10 0 8 #fcfcfc #000000 #000000 8050 1;
#X floatatom 1219 511 5 0 0 0 - - - 0;
#X text 1007 475 SCALE;
#X obj 1288 209 tgl 19 0 empty empty ON/OFF 0 -10 0 8 #fcfcfc #000000 #000000 0 1;
#X text 1317 210 REFLECT;
#X obj 1288 246 tgl 19 0 empty empty ON/OFF 0 -10 0 8 #fcfcfc #000000 #000000 0 1;
#X text 1317 247 SOBEL;
#X obj 1288 286 tgl 19 0 empty empty ON/OFF 0 -10 0 8 #fcfcfc #000000 #000000 0 1;
#X text 1317 287 NORMALISE;
#X obj 1288 326 tgl 19 0 empty empty ON/OFF 0 -10 0 8 #fcfcfc #000000 #000000 0 1;
#X text 1317 327 EROSION;
#X obj 1288 366 tgl 19 0 empty empty ON/OFF 0 -10 0 8 #fcfcfc #000000 #000000 0 1;
#X text 1317 367 DILATION;
#X obj 1288 406 tgl 19 0 empty empty ON/OFF 0 -10 0 8 #fcfcfc #000000 #000000 0 1;
#X text 1317 407 GRADIENT;
#X floatatom 748 404 7 0 0 0 - - - 10;
#X obj 763 632 int;
#X connect 2 0 1 0;
#X connect 3 0 1 1;
#X connect 4 0 3 2;
#X connect 5 0 3 4;
#X connect 5 0 50 0;
#X connect 6 0 2 17;
#X connect 9 0 3 3;
#X connect 10 0 3 0;
#X connect 11 0 3 1;
#X connect 16 0 2 0;
#X connect 17 0 19 0;
#X connect 17 0 2 1;
#X connect 18 0 20 0;
#X connect 18 0 2 2;
#X connect 21 0 2 3;
#X connect 22 0 24 0;
#X connect 22 0 2 4;
#X connect 23 0 25 0;
#X connect 23 0 2 5;
#X connect 26 0 2 6;
#X connect 27 0 29 0;
#X connect 27 0 2 7;
#X connect 28 0 30 0;
#X connect 28 0 2 8;
#X connect 33 0 2 9;
#X connect 34 0 35 0;
#X connect 34 0 2 10;
#X connect 37 0 2 12;
#X connect 39 0 2 13;
#X connect 41 0 2 11;
#X connect 43 0 2 16;
#X connect 45 0 2 15;
#X connect 47 0 2 14;
#X connect 50 0 49 0;
#X coords 0 -100 1 100 1340 500 1 100 100;
