#N canvas 604 105 1037 686 12;
#X obj 362 280 inlet;
#X obj 435 279 inlet;
#X obj 510 278 inlet;
#X obj 410 466 outlet;
#X text 359 253 LATENT1;
#X text 431 253 LATENT2;
#X obj 576 278 inlet;
#X text 571 252 GENERATE;
#X obj 653 278 inlet;
#X text 649 252 INFERENCE_STEPS;
#X text 506 252 ALPHA;
#X floatatom 400 329 5 0 0 0 - - - 0;
#X msg 400 355 set alpha \, \$1;
#X floatatom 157 327 5 0 0 0 - - - 0;
#X floatatom 277 330 5 0 0 0 - - - 0;
#X msg 157 351 set latent1 \, \$1;
#X msg 277 354 set latent2 \, \$1;
#X msg 654 357 set steps \, \$1;
#X floatatom 522 332 5 0 0 0 - - - 0;
#X msg 522 357 set generate \, \$1;
#X obj 653 304 int;
#X floatatom 654 333 5 0 0 0 - - - 0;
#X connect 0 0 13 0;
#X connect 1 0 14 0;
#X connect 2 0 11 0;
#X connect 6 0 18 0;
#X connect 8 0 20 0;
#X connect 11 0 12 0;
#X connect 12 0 3 0;
#X connect 13 0 15 0;
#X connect 14 0 16 0;
#X connect 15 0 3 0;
#X connect 16 0 3 0;
#X connect 17 0 3 0;
#X connect 18 0 19 0;
#X connect 19 0 3 0;
#X connect 20 0 21 0;
#X connect 21 0 17 0;
