#N canvas 316 96 1110 654 12;
#X msg 560 463 disconnect;
#X obj 418 528 netsend -u -b;
#X obj 418 437 list prepend send;
#X obj 418 462 list trim;
#X msg 493 500 connect 127.0.0.1 9999;
#X obj 493 463 loadbang;
#X obj 418 409 oscformat;
#X obj 102 95 inlet;
#X obj 156 95 inlet;
#X text 500 409 OSC SENDER;
#X obj 207 95 inlet;
#X obj 261 95 inlet;
#X obj 310 95 inlet;
#X obj 364 95 inlet;
#X obj 415 95 inlet;
#X obj 469 95 inlet;
#X listbox 380 336 61 0 0 0 - - - 0;
#X obj 278 261 bng 19 250 50 0 empty empty empty 0 -10 0 12 #fcfcfc #000000 #000000;
#X obj 523 96 inlet;
#X obj 577 96 inlet;
#X obj 628 96 inlet;
#X obj 682 96 inlet;
#X obj 731 96 inlet;
#X obj 785 96 inlet;
#X obj 836 96 inlet;
#X obj 890 96 inlet;
#X listbox 192 420 25 0 0 0 - - - 0;
#X text 99 31 ROTATE X -----------;
#X text 99 68 ON/OFF;
#X text 152 69 RADIAN;
#X text 203 69 SCALE;
#X text 262 69 ON/OFF;
#X text 315 70 RADIAN;
#X text 366 70 SCALE;
#X text 262 32 ROTATE Y -----------;
#X text 417 69 ON/OFF;
#X text 470 70 RADIAN;
#X text 521 70 SCALE;
#X text 417 32 ROTATE Z -----------;
#X text 571 31 SCALE--------;
#X text 573 70 ON/OFF;
#X text 625 70 SCALE;
#X text 679 32 NORM;
#X text 677 70 ON/OFF;
#X text 730 32 REFLT;
#X text 730 70 ON/OFF;
#X text 786 70 ON/OFF;
#X text 785 32 SOBEL;
#X msg 334 372 set bend \, \$1 \$2 \$3, f 44;
#X text 837 69 ON/OFF;
#X text 836 31 GRAD;
#X text 891 69 ON/OFF;
#X text 890 31 DILATE;
#X obj 948 97 inlet;
#X text 949 70 ON/OFF;
#X text 948 32 EROSION;
#X obj 370 278 pack i f f i f f i f f i f i i i i i i;
#X connect 0 0 1 0;
#X connect 2 0 3 0;
#X connect 3 0 1 0;
#X connect 4 0 1 0;
#X connect 5 0 4 0;
#X connect 6 0 2 0;
#X connect 7 0 56 0;
#X connect 8 0 17 0;
#X connect 8 0 56 1;
#X connect 10 0 17 0;
#X connect 10 0 56 2;
#X connect 11 0 17 0;
#X connect 11 0 56 3;
#X connect 12 0 17 0;
#X connect 12 0 56 4;
#X connect 13 0 17 0;
#X connect 13 0 56 5;
#X connect 14 0 17 0;
#X connect 14 0 56 6;
#X connect 15 0 17 0;
#X connect 15 0 56 7;
#X connect 17 0 56 0;
#X connect 18 0 17 0;
#X connect 18 0 56 8;
#X connect 19 0 17 0;
#X connect 19 0 56 9;
#X connect 20 0 56 10;
#X connect 21 0 17 0;
#X connect 21 0 56 11;
#X connect 22 0 17 0;
#X connect 22 0 56 12;
#X connect 23 0 17 0;
#X connect 23 0 56 13;
#X connect 24 0 17 0;
#X connect 24 0 56 14;
#X connect 25 0 17 0;
#X connect 25 0 56 15;
#X connect 48 0 26 0;
#X connect 53 0 17 0;
#X connect 53 0 56 16;
#X connect 56 0 16 0;
#X connect 56 0 48 0;
