#N canvas 357 85 1192 689 12;
#X msg 204 177 disconnect;
#X obj 62 242 netsend -u -b;
#X obj 62 151 list prepend send;
#X obj 62 176 list trim;
#X msg 137 214 connect 127.0.0.1 9999;
#X obj 137 177 loadbang;
#X obj 62 123 oscformat;
#X text 144 123 OSC SENDER;
#X obj 62 79 inlet;
#X obj 127 78 inlet;
#X text 60 58 BEND;
#X text 127 56 INFERENCE;
#X connect 0 0 1 0;
#X connect 2 0 3 0;
#X connect 3 0 1 0;
#X connect 4 0 1 0;
#X connect 5 0 4 0;
#X connect 6 0 2 0;
#X connect 8 0 6 0;
#X connect 9 0 6 0;
