#N canvas 67 41 1778 971 12;
#X obj 76 214 vsl 15 128 0 4 0 0 empty empty empty 0 -9 0 10 #ff0400 #000000 #000000 0 1;
#X floatatom 77 364 5 0 0 0 - - - 0;
#X msg 958 162 disconnect;
#X obj 816 227 netsend -u -b;
#X obj 816 136 list prepend send;
#X obj 816 161 list trim;
#X msg 891 199 connect 127.0.0.1 9999;
#X obj 891 162 loadbang;
#X obj 816 108 oscformat;
#X obj 128 204 vsl 15 128 0 100 0 0 empty empty empty 0 -9 0 10 #fcfcfc #000000 #000000 0 1;
#X floatatom 127 365 5 0 0 0 - - - 0;
#X obj 180 177 vsl 15 128 0 4 0 0 empty empty empty 0 -9 0 10 #ff0400 #000000 #000000 0 1;
#X floatatom 180 331 5 0 0 0 - - - 0;
#X msg 79 418 set rotate_x_radian \, \$1;
#X msg 127 391 set rotate_x_scaling_factor \, \$1;
#X msg 180 361 set rotate_y_radian \, \$1;
#X obj 233 163 vsl 15 128 0 100 0 0 empty empty empty 0 -9 0 10 #fcfcfc #000000 #000000 0 1;
#X floatatom 233 302 5 0 0 0 - - - 0;
#X msg 233 329 set rotate_y_scaling_factor \, \$1;
#X obj 287 100 vsl 15 128 0 4 0 0 empty empty empty 0 -9 0 10 #ff0400 #000000 #000000 0 1;
#X floatatom 287 242 5 0 0 0 - - - 0;
#X obj 338 94 vsl 15 128 0 100 0 0 empty empty empty 0 -9 0 10 #fcfcfc #000000 #000000 0 1;
#X floatatom 337 243 5 0 0 0 - - - 0;
#X obj 391 72 vsl 15 128 0 10 0 0 empty empty empty 0 -9 0 10 #00ff04 #000000 #000000 0 1;
#X floatatom 390 209 5 0 0 0 - - - 0;
#X msg 337 269 set rotate_z_scaling_factor \, \$1;
#X msg 289 296 set rotate_z_radian \, \$1;
#X msg 390 240 set scale_factor \, \$1;
#X floatatom 529 848 5 0 0 0 - - - 0;
#X msg 529 874 set layer \, \$1;
#X obj 461 86 tgl 19 0 empty empty empty 0 -10 0 12 #fcfcfc #000000 #000000 0 1;
#X floatatom 461 111 5 0 0 0 - - - 0;
#X obj 29 80 tgl 19 0 empty empty empty 0 -10 0 12 #fcfcfc #000000 #000000 0 1;
#X floatatom 29 105 5 0 0 0 - - - 0;
#X obj 379 414 tgl 19 0 empty empty empty 0 -10 0 12 #fcfcfc #000000 #000000 0 1;
#X floatatom 379 439 5 0 0 0 - - - 0;
#X msg 29 131 set rotate_x \, \$1;
#X obj 129 48 tgl 19 0 empty empty empty 0 -10 0 12 #fcfcfc #000000 #000000 0 1;
#X floatatom 129 73 5 0 0 0 - - - 0;
#X msg 129 99 set rotate_y \, \$1;
#X obj 260 22 tgl 19 0 empty empty empty 0 -10 0 12 #fcfcfc #000000 #000000 0 1;
#X floatatom 258 46 5 0 0 0 - - - 0;
#X msg 379 464 set reflect \, \$1;
#X msg 461 137 set scale \, \$1;
#X obj 515 415 tgl 19 0 empty empty empty 0 -10 0 12 #fcfcfc #000000 #000000 0 1;
#X floatatom 515 440 5 0 0 0 - - - 0;
#X msg 515 465 set sobel \, \$1;
#X msg 258 72 set rotate_z \, \$1;
#X obj 947 483 soundfiler;
#N canvas 634 477 450 250 (subpatch) 0;
#X array audio 130560 float 2;
#X coords 0 0.1 130560 -0.1 504 339 1 0 0;
#X restore 423 1061 graph;
#X obj 947 435 bng 19 250 50 0 empty empty empty 0 -10 0 12 #fcfcfc #000000 #000000;
#X obj 914 367 loadbang;
#X obj 425 1415 hsl 500 50 0 1 0 0 empty empty LATENT-MIX\ (alpha) -2 -10 0 12 #c6ffc7 #000000 #000000 0 0;
#X floatatom 270 712 5 0 0 0 - - - 0;
#X msg 270 744 set alpha \, \$1;
#X floatatom 425 793 5 0 0 0 - - - 0;
#X floatatom 444 733 5 0 0 0 - - - 0;
#X msg 425 817 set latent1 \, \$1;
#X msg 444 757 set latent2 \, \$1;
#X obj 914 391 bng 19 250 50 0 empty empty empty 0 -10 0 12 #fcfcfc #000000 #000000;
#X obj 1022 359 tgl 19 0 empty empty empty 0 -10 0 12 #fcfcfc #000000 #000000 0 1;
#X floatatom 1022 384 5 0 0 0 - - - 0;
#X msg 1023 410 set loop \, \$1;
#X obj 424 1582 hsl 100 42 1 1000 1 1 empty empty Inference_steps -2 -10 0 12 #ffc7c6 #000000 #000000 3900 0;
#X floatatom 457 1672 5 0 0 0 - - - 0;
#X obj 458 1647 int;
#X msg 647 758 set steps \, \$1;
#X obj 254 454 tgl 19 0 empty empty empty 0 -10 0 12 #fcfcfc #000000 #000000 0 1;
#X floatatom 254 479 5 0 0 0 - - - 0;
#X msg 254 504 set normalize \, \$1;
#X text 690 39 SAMPLE RATE MUST BE 22050K;
#X msg 948 460 read -resize output_audio.wav audio;
#X obj 1013 1278 output~;
#X floatatom 1177 328 6 0 0 0 - - - 0;
#X obj 1243 561 *~;
#X obj 1288 637 samphold~;
#X obj 1238 638 +~;
#X msg 1229 360 set 0.5;
#X text 1289 359 set phase (0 to 1);
#X text 1272 386 reset phase to 0;
#X obj 1177 360 sig~ 1;
#X obj 1273 500 sig~ 22050;
#X obj 1240 528 loop~;
#X obj 1249 386 bng 19 250 50 0 empty empty empty 17 7 0 10 #dfdfdf #000000 #000000;
#X floatatom 946 511 10 0 0 0 - - - 0;
#X obj 1237 676 tabread~ audio;
#X obj 1015 1050 vu 19 200 empty empty -1 -10 0 12 #404040 #000000 1 0;
#X obj 1015 996 env~;
#X obj 1237 714 *~ 100;
#X obj 1014 1021 - 100;
#X obj 1177 148 vsl 19 162 0 10 0 0 empty empty empty 0 -9 0 12 #fcfcfc #000000 #000000 0 1;
#X text 1205 161 Rate, f 27;
#X obj 360 1475 hradio 42 1 0 15 empty empty empty 0 -10 0 12 #ffc7c6 #000000 #000000 0;
#X obj 1560 854 vsl 19 100 40 5000 0 0 empty empty empty 0 -9 0 12 #fcfcfc #000000 #000000 0 1;
#X obj 1559 701 vsl 19 100 0 8 0 0 empty empty empty 0 -9 0 12 #fcfcfc #000000 #000000 0 1;
#X obj 1421 1058 bob~ 100;
#X obj 1562 997 line~;
#X obj 1560 970 pack f 50;
#X obj 1560 815 sig~;
#X obj 95 558 tgl 19 0 empty empty empty 0 -10 0 12 #fcfcfc #000000 #000000 0 1;
#X floatatom 95 583 5 0 0 0 - - - 0;
#X msg 95 608 set erosion \, \$1;
#X obj 222 559 tgl 19 0 empty empty empty 0 -10 0 12 #fcfcfc #000000 #000000 0 1;
#X floatatom 222 584 5 0 0 0 - - - 0;
#X msg 222 609 set dilation \, \$1;
#X obj 368 561 tgl 19 0 empty empty empty 0 -10 0 12 #fcfcfc #000000 #000000 0 1;
#X floatatom 368 586 5 0 0 0 - - - 0;
#X msg 369 611 set gradient \, \$1;
#X text 361 1526 PRE-PROCESSING, f 7;
#X text 865 1534 POST-PROCESSING;
#X text 418 1534 -----------------------------DOWN-BLOCKS-----------------------, f 68;
#X obj 363 1585 tgl 40 1 empty empty GENERATE 0 -10 0 12 #ffc7c6 #000000 #000000 1 1;
#X floatatom 698 646 5 0 0 0 - - - 0;
#X msg 698 671 set generate \, \$1;
#X obj 358 1053 vradio 40 1 0 10 empty empty LATENT-1 0 -10 0 12 #c6ffc7 #000000 #000000 0;
#X obj 948 1054 vradio 40 1 0 10 empty empty LATENT-2 0 -10 0 12 #c6ffc7 #000000 #000000 0;
#X obj 1820 625 soundfiler;
#X msg 1821 602 read -resize output_audio.wav audio;
#X floatatom 1819 653 10 0 0 0 - - - 0;
#X obj 1821 697 s end;
#X msg 1752 737 range 0 \$1;
#X obj 1845 827 hsl 162 19 0 130560 0 0 empty empty empty -2 -10 0 12 #fcfcfc #000000 #000000 0 1;
#X obj 1837 859 s start;
#X obj 1840 913 hsl 162 19 0 130560 0 0 empty empty empty -2 -10 0 12 #fcfcfc #000000 #000000 0 1;
#X obj 1837 939 s end;
#X obj 1820 1083 r start;
#X obj 1760 1162 f;
#X obj 2005 1089 r end;
#X floatatom 1846 1183 8 0 0 0 - - - 0;
#X obj 1745 1251 pack f f f;
#X obj 1779 1220 r end;
#X obj 1736 1351 vline~;
#X msg 1828 1301 stop;
#X obj 1884 1301 r start;
#X obj 1951 1299 r end;
#X msg 1882 1329 \$1 100;
#X obj 1740 1530 output~;
#X obj 1681 1105 bng 19 250 50 0 empty empty empty 0 -10 0 12 #fcfcfc #000000 #000000;
#X floatatom 1934 1224 5 0 0 0 - - - 0;
#X obj 1842 1231 / 1;
#X msg 1738 1301 \$1 \, \$2 \$3;
#X obj 1740 1491 *~ 100;
#X floatatom 1910 863 12 0 0 0 - - - 0;
#X floatatom 1895 950 12 0 0 0 - - - 0;
#X obj 1740 1390 tabread~ audio;
#X obj 1819 1141 expr abs($f2 - $f1) / 22.05;
#X obj 947 411 metro 500;
#X obj 1426 439 hsl 162 19 0 130560 0 0 empty empty empty -2 -10 0 12 #fcfcfc #000000 #000000 0 0;
#X floatatom 1424 476 5 0 0 0 - - - 0;
#X obj 423 1050 hsl 500 339 0 130560 0 0 empty empty empty -2 -10 0 12 #fcfcfc #ff0400 #000000 0 1;
#X obj 1347 596 sig~;
#X floatatom 1598 278 12 0 0 0 - - - 0;
#X text 1390 509 comment;
#X text 1374 487 comment;
#X text 1507 406 SAMPLE LENGTH;
#X text 1519 537 SAMPLE START;
#X floatatom 1485 478 5 0 0 0 - - - 0;
#X obj 1487 508 pack f f;
#X msg 1405 534 range \$1 \$2;
#X obj 1445 324 expr abs($f1 - $f2);
#X floatatom 1424 369 14 0 0 0 - - - 0;
#X floatatom 1352 373 5 0 0 0 - - - 0;
#X obj 1358 391 pack f f;
#X msg 1423 412 range \$1 \$2;
#X msg 1179 113 set 1;
#X obj 43 681 bend-pack, f 33;
#X listbox 36 712 20 0 0 0 - - - 0;
#X obj 289 681 inference-pack;
#X obj 50 789 osc-send;
#X connect 0 0 1 0;
#X connect 1 0 13 0;
#X connect 2 0 3 0;
#X connect 4 0 5 0;
#X connect 5 0 3 0;
#X connect 6 0 3 0;
#X connect 7 0 6 0;
#X connect 8 0 4 0;
#X connect 9 0 10 0;
#X connect 10 0 14 0;
#X connect 11 0 12 0;
#X connect 12 0 15 0;
#X connect 13 0 8 0;
#X connect 13 0 165 0;
#X connect 14 0 8 0;
#X connect 14 0 165 1;
#X connect 15 0 8 0;
#X connect 15 0 165 2;
#X connect 16 0 17 0;
#X connect 17 0 18 0;
#X connect 18 0 8 0;
#X connect 18 0 165 3;
#X connect 19 0 20 0;
#X connect 20 0 26 0;
#X connect 21 0 22 0;
#X connect 22 0 25 0;
#X connect 23 0 24 0;
#X connect 24 0 27 0;
#X connect 25 0 8 0;
#X connect 25 0 165 5;
#X connect 26 0 8 0;
#X connect 26 0 165 4;
#X connect 27 0 8 0;
#X connect 27 0 165 6;
#X connect 28 0 29 0;
#X connect 29 0 8 0;
#X connect 30 0 31 0;
#X connect 31 0 43 0;
#X connect 32 0 33 0;
#X connect 33 0 36 0;
#X connect 34 0 35 0;
#X connect 35 0 42 0;
#X connect 36 0 8 0;
#X connect 37 0 38 0;
#X connect 38 0 39 0;
#X connect 39 0 8 0;
#X connect 40 0 41 0;
#X connect 41 0 47 0;
#X connect 42 0 8 0;
#X connect 43 0 8 0;
#X connect 44 0 45 0;
#X connect 45 0 46 0;
#X connect 46 0 8 0;
#X connect 47 0 8 0;
#X connect 48 0 84 0;
#X connect 50 0 71 0;
#X connect 50 0 156 0;
#X connect 50 0 151 0;
#X connect 50 0 160 0;
#X connect 50 0 162 0;
#X connect 51 0 59 0;
#X connect 51 0 146 0;
#X connect 52 0 53 0;
#X connect 53 0 54 0;
#X connect 54 0 8 0;
#X connect 55 0 57 0;
#X connect 56 0 58 0;
#X connect 57 0 8 0;
#X connect 58 0 8 0;
#X connect 59 0 146 0;
#X connect 60 0 61 0;
#X connect 61 0 62 0;
#X connect 62 0 8 0;
#X connect 63 0 65 0;
#X connect 64 0 66 0;
#X connect 65 0 64 0;
#X connect 66 0 8 0;
#X connect 67 0 68 0;
#X connect 68 0 69 0;
#X connect 69 0 8 0;
#X connect 71 0 48 0;
#X connect 73 0 80 0;
#X connect 74 0 76 0;
#X connect 75 0 76 1;
#X connect 76 0 85 0;
#X connect 77 0 82 0;
#X connect 80 0 82 0;
#X connect 81 0 82 1;
#X connect 82 0 74 0;
#X connect 82 0 75 1;
#X connect 82 1 74 1;
#X connect 83 0 82 0;
#X connect 84 0 157 1;
#X connect 84 0 159 0;
#X connect 85 0 88 0;
#X connect 87 0 89 0;
#X connect 88 0 95 0;
#X connect 89 0 86 0;
#X connect 90 0 73 0;
#X connect 92 0 28 0;
#X connect 93 0 97 0;
#X connect 94 0 98 0;
#X connect 95 0 72 0;
#X connect 95 0 72 1;
#X connect 95 0 87 0;
#X connect 96 0 95 1;
#X connect 97 0 96 0;
#X connect 98 0 95 2;
#X connect 99 0 100 0;
#X connect 100 0 101 0;
#X connect 101 0 8 0;
#X connect 102 0 103 0;
#X connect 103 0 104 0;
#X connect 104 0 8 0;
#X connect 105 0 106 0;
#X connect 106 0 107 0;
#X connect 107 0 8 0;
#X connect 111 0 112 0;
#X connect 112 0 113 0;
#X connect 113 0 8 0;
#X connect 114 0 55 0;
#X connect 115 0 56 0;
#X connect 116 0 118 0;
#X connect 117 0 116 0;
#X connect 118 0 119 0;
#X connect 118 0 120 0;
#X connect 120 0 121 0;
#X connect 120 0 123 0;
#X connect 121 0 122 0;
#X connect 121 0 142 0;
#X connect 123 0 124 0;
#X connect 123 0 143 0;
#X connect 125 0 126 1;
#X connect 125 0 145 0;
#X connect 126 0 129 0;
#X connect 127 0 145 1;
#X connect 128 0 139 0;
#X connect 129 0 140 0;
#X connect 130 0 129 1;
#X connect 131 0 144 0;
#X connect 132 0 131 0;
#X connect 133 0 135 0;
#X connect 134 0 135 0;
#X connect 135 0 131 0;
#X connect 137 0 126 0;
#X connect 138 0 139 1;
#X connect 139 0 129 2;
#X connect 140 0 131 0;
#X connect 141 0 136 0;
#X connect 141 0 136 1;
#X connect 144 0 141 0;
#X connect 145 0 128 0;
#X connect 146 0 50 0;
#X connect 147 0 148 0;
#X connect 148 0 81 0;
#X connect 149 0 150 0;
#X connect 149 0 151 0;
#X connect 150 0 75 0;
#X connect 151 0 159 1;
#X connect 156 0 157 0;
#X connect 157 0 158 0;
#X connect 158 0 149 0;
#X connect 159 0 160 0;
#X connect 160 0 162 1;
#X connect 161 0 162 0;
#X connect 162 0 163 0;
#X connect 163 0 147 0;
#X connect 164 0 90 0;
#X connect 165 0 166 0;
#X connect 165 0 168 0;
#X connect 167 0 168 1;
#X coords 0 0 1 1 85 60 0;
