#N canvas 1061 303 1766 1076 12;
#X obj 76 214 vsl 15 128 0 4 0 0 empty empty empty 0 -9 0 10 #ff0400 #000000 #000000 0 1;
#X floatatom 77 364 5 0 0 0 - - - 0;
#X msg 958 162 disconnect;
#X obj 816 227 netsend -u -b;
#X obj 816 136 list prepend send;
#X obj 816 161 list trim;
#X msg 891 199 connect 127.0.0.1 9999;
#X obj 891 162 loadbang;
#X obj 816 108 oscformat;
#X obj 128 204 vsl 15 128 0 100 0 0 empty empty empty 0 -9 0 10 #fcfcfc #000000 #000000 0 1;
#X floatatom 127 365 5 0 0 0 - - - 0;
#X obj 180 177 vsl 15 128 0 4 0 0 empty empty empty 0 -9 0 10 #ff0400 #000000 #000000 0 1;
#X floatatom 180 331 5 0 0 0 - - - 0;
#X msg 79 418 set rotate_x_radian \, \$1;
#X msg 127 391 set rotate_x_scaling_factor \, \$1;
#X msg 180 361 set rotate_y_radian \, \$1;
#X obj 233 163 vsl 15 128 0 100 0 0 empty empty empty 0 -9 0 10 #fcfcfc #000000 #000000 0 1;
#X floatatom 233 302 5 0 0 0 - - - 0;
#X msg 233 329 set rotate_y_scaling_factor \, \$1;
#X obj 287 100 vsl 15 128 0 4 0 0 empty empty empty 0 -9 0 10 #ff0400 #000000 #000000 0 1;
#X floatatom 287 242 5 0 0 0 - - - 0;
#X obj 338 94 vsl 15 128 0 100 0 0 empty empty empty 0 -9 0 10 #fcfcfc #000000 #000000 0 1;
#X floatatom 337 243 5 0 0 0 - - - 0;
#X obj 391 72 vsl 15 128 0 10 0 0 empty empty empty 0 -9 0 10 #00ff04 #000000 #000000 0 1;
#X floatatom 390 209 5 0 0 0 - - - 0;
#X msg 337 269 set rotate_z_scaling_factor \, \$1;
#X msg 289 296 set rotate_z_radian \, \$1;
#X msg 390 240 set scale_factor \, \$1;
#X obj 570 36 vsl 19 162 0 11 0 0 empty empty empty 0 -9 0 12 #fcfcfc #000000 #000000 0 0;
#X obj 569 215 int;
#X floatatom 569 242 5 0 0 0 - - - 0;
#X msg 569 268 set layer \, \$1;
#X obj 461 86 tgl 19 0 empty empty empty 0 -10 0 12 #fcfcfc #000000 #000000 0 1;
#X floatatom 461 111 5 0 0 0 - - - 0;
#X obj 29 80 tgl 19 0 empty empty empty 0 -10 0 12 #fcfcfc #000000 #000000 0 1;
#X floatatom 29 105 5 0 0 0 - - - 0;
#X obj 379 414 tgl 19 0 empty empty empty 0 -10 0 12 #fcfcfc #000000 #000000 0 1;
#X floatatom 379 439 5 0 0 0 - - - 0;
#X msg 29 131 set rotate_x \, \$1;
#X obj 129 48 tgl 19 0 empty empty empty 0 -10 0 12 #fcfcfc #000000 #000000 0 1;
#X floatatom 129 73 5 0 0 0 - - - 0;
#X msg 129 99 set rotate_y \, \$1;
#X obj 258 21 tgl 19 0 empty empty empty 0 -10 0 12 #fcfcfc #000000 #000000 0 1;
#X floatatom 258 46 5 0 0 0 - - - 0;
#X msg 379 464 set reflect \, \$1;
#X msg 461 137 set scale \, \$1;
#X obj 515 415 tgl 19 0 empty empty empty 0 -10 0 12 #fcfcfc #000000 #000000 0 1;
#X floatatom 515 440 5 0 0 0 - - - 0;
#X msg 515 465 set sobel \, \$1;
#X msg 258 72 set rotate_z \, \$1;
#X obj 862 397 soundfiler;
#N canvas 634 477 450 250 (subpatch) 0;
#X array audio 130560 float 2;
#X coords 0 1 130560 -1 472 3459 1 0 0;
#X restore 1141 -1313 graph;
#X obj 726 461 *~;
#X floatatom 839 430 5 0 0 0 - - - 0;
#X obj 728 568 dac~;
#X obj 727 382 bng 19 250 50 0 empty empty empty 0 -10 0 12 #fcfcfc #000000 #000000;
#X obj 862 349 bng 19 250 50 0 empty empty empty 0 -10 0 12 #fcfcfc #000000 #000000;
#X obj 727 431 tabplay~ audio;
#X obj 829 281 loadbang;
#X obj 273 685 hsl 162 19 0 1 0 0 empty empty Alpha -2 -10 0 12 #fcfcfc #000000 #000000 0 0;
#X floatatom 270 714 5 0 0 0 - - - 0;
#X msg 270 744 set alpha \, \$1;
#X obj 98 686 hsl 162 19 0 9 0 0 empty empty Latent1 -2 -10 0 12 #fcfcfc #000000 #000000 0 0;
#X floatatom 95 737 5 0 0 0 - - - 0;
#X obj 95 713 int;
#X obj 447 683 hsl 162 19 0 9 0 1 empty empty Latent2 -2 -10 0 12 #fcfcfc #000000 #000000 2300 0;
#X floatatom 444 733 5 0 0 0 - - - 0;
#X obj 444 709 int;
#X msg 95 761 set latent1 \, \$1;
#X msg 444 757 set latent2 \, \$1;
#X msg 863 374 read -resize output_audio.wav audio;
#X obj 862 325 metro 10;
#X obj 829 305 bng 19 250 50 0 empty empty empty 0 -10 0 12 #fcfcfc #000000 #000000;
#X obj 937 273 tgl 19 0 empty empty empty 0 -10 0 12 #fcfcfc #000000 #000000 0 1;
#X floatatom 937 298 5 0 0 0 - - - 0;
#X msg 938 324 set loop \, \$1;
#X obj 650 682 hsl 162 19 1 1000 1 1 empty empty Inference_steps -2 -10 0 12 #fcfcfc #000000 #000000 10700 0;
#X floatatom 647 734 5 0 0 0 - - - 0;
#X obj 647 710 int;
#X msg 647 758 set steps \, \$1;
#X obj 254 454 tgl 19 0 empty empty empty 0 -10 0 12 #fcfcfc #000000 #000000 0 1;
#X floatatom 254 479 5 0 0 0 - - - 0;
#X msg 254 504 set normalize \, \$1;
#X text 690 39 SAMPLE RATE MUST BE 22050K;
#X floatatom 726 405 5 0 0 0 - - - 0;
#X obj 926 480 vu 19 200 empty empty -1 -10 0 12 #404040 #000000 1 0;
#X connect 0 0 1 0;
#X connect 1 0 13 0;
#X connect 2 0 3 0;
#X connect 4 0 5 0;
#X connect 5 0 3 0;
#X connect 6 0 3 0;
#X connect 7 0 6 0;
#X connect 8 0 4 0;
#X connect 9 0 10 0;
#X connect 10 0 14 0;
#X connect 11 0 12 0;
#X connect 12 0 15 0;
#X connect 13 0 8 0;
#X connect 14 0 8 0;
#X connect 15 0 8 0;
#X connect 16 0 17 0;
#X connect 17 0 18 0;
#X connect 18 0 8 0;
#X connect 19 0 20 0;
#X connect 20 0 26 0;
#X connect 21 0 22 0;
#X connect 22 0 25 0;
#X connect 23 0 24 0;
#X connect 24 0 27 0;
#X connect 25 0 8 0;
#X connect 26 0 8 0;
#X connect 27 0 8 0;
#X connect 28 0 29 0;
#X connect 29 0 30 0;
#X connect 30 0 31 0;
#X connect 31 0 8 0;
#X connect 32 0 33 0;
#X connect 33 0 45 0;
#X connect 34 0 35 0;
#X connect 35 0 38 0;
#X connect 36 0 37 0;
#X connect 37 0 44 0;
#X connect 38 0 8 0;
#X connect 39 0 40 0;
#X connect 40 0 41 0;
#X connect 41 0 8 0;
#X connect 42 0 43 0;
#X connect 43 0 49 0;
#X connect 44 0 8 0;
#X connect 45 0 8 0;
#X connect 46 0 47 0;
#X connect 47 0 48 0;
#X connect 48 0 8 0;
#X connect 49 0 8 0;
#X connect 52 0 54 0;
#X connect 52 0 54 1;
#X connect 53 0 52 1;
#X connect 55 0 84 0;
#X connect 56 0 70 0;
#X connect 57 0 52 0;
#X connect 57 1 55 0;
#X connect 58 0 71 0;
#X connect 58 0 72 0;
#X connect 59 0 60 0;
#X connect 60 0 61 0;
#X connect 61 0 8 0;
#X connect 62 0 64 0;
#X connect 63 0 68 0;
#X connect 64 0 63 0;
#X connect 65 0 67 0;
#X connect 66 0 69 0;
#X connect 67 0 66 0;
#X connect 68 0 8 0;
#X connect 69 0 8 0;
#X connect 70 0 50 0;
#X connect 71 0 56 0;
#X connect 72 0 71 0;
#X connect 73 0 74 0;
#X connect 74 0 75 0;
#X connect 75 0 8 0;
#X connect 75 0 55 0;
#X connect 76 0 78 0;
#X connect 77 0 79 0;
#X connect 78 0 77 0;
#X connect 79 0 8 0;
#X connect 80 0 81 0;
#X connect 81 0 82 0;
#X connect 82 0 8 0;
#X connect 84 0 57 0;
